<svg preserveAspectRatio="none" width="100%" height="100%" overflow="visible" style="display: block;" viewBox="0 0 259.744 379.626" fill="none" xmlns="http://www.w3.org/2000/svg">
<g id="Asset 4 1" clip-path="url(#clip0_0_17)">
<path id="Vector" d="M0 19.1564C0.669498 155.779 0.074909 239.255 1.36006 375.561C83.3525 377.53 167.571 377.876 249.873 379.309C252.885 379.108 258.15 380.767 258.258 376.437C256.902 344.207 257.511 366.528 258.99 334.329C258.925 295.598 258.719 256.896 259.744 218.138C259.079 159.091 259.658 26.8369 259.587 19.8376C259.543 17.6817 257.63 18.1077 255.336 18.0445C170.497 19.1752 82.9312 15.0833 0.0023409 18.8053V19.1564H0ZM37.2882 256.112C37.1454 256.269 37.0612 256.477 37.0682 256.693C37.0846 257.147 37.4638 257.477 37.9062 257.477C38.1286 257.477 38.3276 257.374 38.4681 257.219C38.3253 257.376 38.1263 257.477 37.9039 257.477C37.4638 257.477 37.0822 257.147 37.0659 256.693C37.0588 256.48 37.1431 256.269 37.2859 256.112H37.2882Z" fill="var(--fill-0, #F4F4ED)"/>
<g id="Group">
<path id="Vector_2" d="M185.094 33.2981C185.03 33.771 184.747 34.1807 184.305 34.4335C182.35 35.1896 180.079 35.316 177.842 35.3488C177.085 35.3792 176.36 35.3488 175.634 35.3488H173.869C171.221 35.2224 168.604 35.1287 165.985 35.096C165.259 35.0632 164.534 35.0328 163.808 35.0328C160.371 34.9695 156.965 34.9063 153.592 34.9063H151.385C147.979 34.9063 144.575 34.9063 141.136 34.9695H139.275L138.959 35H138.77C135.174 35.0632 131.548 35.1568 127.891 35.2832C127.166 35.2832 126.44 35.316 125.714 35.3464C121.711 35.5033 117.673 35.6625 113.638 35.8825C112.912 35.9129 112.186 35.9457 111.493 36.0089C107.804 36.1985 104.115 36.4186 100.426 36.6714C99.7326 36.7018 99.007 36.765 98.2813 36.7978C94.9385 37.0178 91.5957 37.2707 88.2856 37.5562C87.5927 37.5867 86.867 37.6499 86.1741 37.7131H86.0477C81.9792 37.8699 82.3912 31.8163 82.0752 28.2839C82.0424 27.8111 81.9816 27.4014 81.9184 27.0526C81.8879 26.7062 81.8552 26.3269 81.8552 25.9805C81.5391 21.3759 81.1295 16.7714 80.8462 12.1668L80.7526 9.89613C80.659 8.44477 80.6262 7.02619 80.5958 5.6076C80.6894 3.14731 83.2457 2.83129 85.3876 2.32799C85.7036 2.26479 86.0173 2.20159 86.3029 2.10795C86.7125 2.04475 87.155 1.98154 87.5646 1.91834C91.6331 1.28863 95.6993 0.846203 99.7982 0.562954C100.491 0.499749 101.217 0.469317 101.942 0.406113C105.412 0.2165 108.879 0.0900912 112.381 0.0268868C113.106 0.0268868 113.832 -0.00588584 114.555 0.0268868C118.591 -0.0363176 122.627 0.0268868 126.665 0.122864C127.39 0.122864 128.116 0.153296 128.839 0.153296C132.309 0.279704 135.778 0.37334 139.245 0.499749C139.97 0.530181 140.663 0.562954 141.389 0.593385C144.638 0.689362 147.852 0.782998 151.101 0.878976C151.794 0.909407 152.52 0.909407 153.213 0.94218C157.029 1.00538 160.811 1.06859 164.627 1.00538C165.353 1.03816 166.046 1.00538 166.771 0.972612C169.169 0.972612 171.563 0.909407 173.96 0.782998C174.466 0.846203 175.096 0.846203 175.758 0.815771C176.484 0.782998 177.24 0.752567 177.902 0.815771C179.101 0.909407 180.11 1.2582 180.426 2.48718C180.489 5.20028 180.992 7.84784 181.592 10.4673C181.749 11.2562 181.938 12.0123 182.128 12.8012C182.821 15.6407 183.483 18.4779 183.769 21.4742C183.862 22.8624 184.022 24.3442 184.211 25.826C184.305 26.6149 184.401 27.4037 184.494 28.1599C184.714 29.9577 184.935 31.6923 185.094 33.3005V33.2981Z" fill="var(--fill-0, #F995D6)"/>
<path id="Vector_3" d="M184.214 25.823C182.227 25.7926 180.209 25.7598 178.191 25.6966C178.222 25.4133 178.222 25.1605 178.222 24.9077C178.378 20.8696 178.348 16.8644 178.285 12.8591C179.577 12.8286 180.839 12.8286 182.131 12.7959C181.941 12.007 181.754 11.2509 181.595 10.462C180.46 10.462 179.357 10.4948 178.222 10.5252C178.126 7.71846 178.032 4.90937 177.938 2.10263C177.938 1.69297 177.938 1.25054 177.906 0.810452C177.243 0.747247 176.487 0.777679 175.761 0.810452V0.93686C175.855 4.15326 175.951 7.372 176.045 10.5884C172.985 10.6516 169.928 10.7452 166.838 10.8084C166.931 7.52884 166.931 4.24924 166.775 0.967292C166.049 1.00006 165.356 1.0305 164.63 1.00006C164.787 4.27967 164.787 7.59205 164.694 10.8412C161.037 10.9372 157.378 10.9676 153.689 10.9044C153.595 7.56162 153.469 4.24924 153.216 0.93686C152.523 0.906429 151.798 0.906429 151.105 0.873656C151.357 4.18603 151.451 7.52884 151.547 10.8717C148.204 10.7757 144.894 10.6188 141.582 10.4292C141.549 7.14962 141.488 3.87001 141.392 0.588066C140.667 0.557634 139.974 0.524861 139.248 0.49443C139.278 2.51229 139.342 4.46928 139.374 6.45437C139.407 7.74889 139.438 9.04107 139.438 10.3332C135.938 10.1436 132.469 9.92359 128.969 9.79718C129.002 7.05364 129.002 4.34053 128.875 1.597C128.875 1.12413 128.875 0.618498 128.843 0.145635C128.117 0.145635 127.394 0.115203 126.668 0.115203C126.825 3.3316 126.825 6.51757 126.794 9.73397H126.701C122.759 9.57713 118.786 9.57713 114.844 9.60756C114.844 7.5265 114.814 5.47587 114.718 3.42524C114.687 2.2899 114.654 1.15456 114.561 0.0192264C113.835 -0.0135462 113.109 0.0192264 112.386 0.0192264C112.639 3.2052 112.606 6.4216 112.639 9.60756C108.917 9.67077 105.23 9.73397 101.508 9.82761C101.508 9.76441 101.508 9.73397 101.541 9.67077C101.857 6.58078 101.95 3.48844 101.95 0.398453C101.225 0.461657 100.499 0.492089 99.8061 0.555293C99.7429 3.67806 99.6165 6.73762 99.366 9.86038C95.4567 9.95402 91.545 10.0172 87.6053 9.98679C87.6357 7.30646 87.6357 4.59335 87.5725 1.91302C87.1629 1.97622 86.7204 2.03943 86.3108 2.10263C86.0275 2.19861 85.7115 2.26181 85.3955 2.32268C85.3955 4.8766 85.3955 7.43287 85.4283 9.98679C84.2297 9.95636 83.0007 9.95636 81.7694 9.92359C81.423 9.89316 81.107 9.89316 80.7605 9.89316L80.8541 12.1638C81.547 12.1638 82.2423 12.1943 82.9048 12.227C83.7569 12.2598 84.6066 12.2598 85.4587 12.2598C85.5219 16.8012 85.6155 21.3121 85.7747 25.8534C84.4825 25.9166 83.1576 25.9798 81.8654 25.9798C81.8654 26.3263 81.8982 26.7055 81.9286 27.052C81.9918 27.3984 82.055 27.8081 82.0854 28.2833C83.3472 28.2505 84.6089 28.1873 85.8684 28.1241C85.8988 29.4186 85.962 30.678 86.0252 31.9726C86.0556 33.8968 86.0884 35.7882 86.182 37.7124C86.8749 37.6492 87.6006 37.586 88.2935 37.5556V37.1764C88.2935 34.1168 88.1671 31.0573 88.0407 27.9977C91.5404 27.7753 95.0096 27.5553 98.5092 27.4616C98.446 29.9851 98.3828 32.5391 98.3524 35.0625C98.3196 35.6314 98.3196 36.2283 98.2892 36.7972C99.0149 36.7667 99.7405 36.7035 100.433 36.6707C100.464 36.4811 100.464 36.2611 100.464 36.0715C100.527 33.1711 100.59 30.2684 100.653 27.3984H103.523C106.33 27.4616 109.104 27.5248 111.911 27.5553C111.784 29.2594 111.658 30.9941 111.595 32.6959C111.562 33.8008 111.499 34.9034 111.499 36.0083C112.192 35.9451 112.917 35.9146 113.643 35.8819C113.674 34.3041 113.737 32.7287 113.833 31.1509C113.926 29.9524 114.053 28.7538 114.116 27.5857C118.089 27.6185 122.061 27.6489 126.036 27.7121C125.973 29.0371 125.909 30.3292 125.846 31.6542C125.816 32.8832 125.753 34.1145 125.72 35.3435C126.446 35.313 127.171 35.2802 127.897 35.2802C127.897 34.8378 127.897 34.4282 127.927 33.9881C127.991 31.907 128.084 29.8259 128.211 27.7425C129.25 27.7425 130.292 27.773 131.331 27.8057C133.979 27.8689 136.628 27.8994 139.278 27.8994C139.185 30.2965 139.089 32.6303 138.962 34.997L139.278 34.9666H141.139C141.266 32.6327 141.359 30.2356 141.423 27.9322C144.829 27.9322 148.232 27.8689 151.638 27.8385C151.671 30.2052 151.545 32.5695 151.386 34.9034H153.593C153.626 34.4937 153.626 34.1145 153.656 33.7048C153.687 31.7502 153.719 29.7932 153.75 27.8081C157.156 27.7753 160.562 27.7449 163.966 27.7144C163.872 30.1747 163.809 32.6023 163.809 35.0321C164.534 35.0321 165.26 35.0625 165.986 35.0953C166.016 32.635 166.016 30.1747 166.112 27.7472C169.392 27.7472 172.671 27.7777 175.951 27.8736C175.857 30.3644 175.761 32.8878 175.635 35.3481C176.361 35.3481 177.086 35.3786 177.842 35.3481C177.906 32.8878 177.999 30.4276 178.095 27.9673L180.46 28.0632C181.785 28.0937 183.14 28.1264 184.495 28.1569C184.399 27.4008 184.306 26.6119 184.212 25.823H184.214ZM99.1717 12.3886C98.8252 16.6162 98.6661 20.9048 98.5724 25.1629C95.0096 25.2565 91.4772 25.5093 87.9471 25.7294C87.8511 23.2995 87.727 20.9048 87.6638 18.4749C87.6334 16.4243 87.6006 14.3736 87.6006 12.2926C91.4795 12.3254 95.3256 12.2621 99.1717 12.1662V12.3862V12.3886ZM112.101 25.2565C109.231 25.2237 106.426 25.1933 103.587 25.0997H100.717C100.843 20.7784 101.033 16.457 101.346 12.1053C105.099 12.0421 108.882 11.9485 112.634 11.8853C112.634 12.1685 112.634 12.4213 112.667 12.6741C112.761 16.869 112.414 21.0639 112.098 25.2588L112.101 25.2565ZM126.162 25.4133C122.22 25.3806 118.248 25.3501 114.306 25.2869C114.622 20.8088 114.811 16.3611 114.842 11.8829C116.197 11.8501 117.552 11.8501 118.941 11.8829C121.527 11.8829 124.112 11.9461 126.729 12.0093C126.602 16.4875 126.382 20.968 126.16 25.4133H126.162ZM139.344 25.6357C137.263 25.6357 135.182 25.603 133.101 25.5725C131.493 25.5093 129.917 25.4789 128.309 25.4789C128.562 21.0312 128.782 16.553 128.908 12.1053C132.441 12.2621 135.94 12.4518 139.47 12.6414C139.501 16.9627 139.44 21.3144 139.344 25.6357ZM141.488 25.6357C141.615 21.3472 141.645 17.0563 141.615 12.735C144.925 12.9246 148.237 13.0815 151.547 13.1447C151.61 17.3068 151.61 21.4408 151.61 25.5725C148.237 25.603 144.861 25.6357 141.488 25.6357ZM164.064 25.4461C160.627 25.4765 157.191 25.5093 153.785 25.5398C153.815 21.4385 153.848 17.3068 153.752 13.1751C154.888 13.2055 156.053 13.2055 157.189 13.2055C159.679 13.1751 162.14 13.1423 164.598 13.1119C164.471 17.2132 164.251 21.3449 164.062 25.4438L164.064 25.4461ZM176.017 25.6357C174.345 25.5725 172.643 25.5093 170.972 25.4461H166.21C166.4 21.3144 166.653 17.2132 166.779 13.0815C169.902 13.0183 172.99 12.9551 176.113 12.8919C176.176 16.0146 176.206 19.1374 176.143 22.2906C176.113 23.3955 176.08 24.498 176.017 25.6334V25.6357Z" fill="var(--fill-0, #131314)"/>
</g>
</g>
<defs>
<clipPath id="clip0_0_17">
<rect width="259.744" height="379.626" fill="white"/>
</clipPath>
</defs>
</svg>
