<svg preserveAspectRatio="none" width="100%" height="100%" overflow="visible" style="display: block;" viewBox="0 0 260.077 367.822" fill="none" xmlns="http://www.w3.org/2000/svg">
<g id="Group">
<path id="Vector" d="M260.075 0H0V367.82H260.075V0Z" fill="var(--fill-0, #FF661E)"/>
<path id="Vector_2" d="M12.6907 0L19.1195 14.7257H28.9332L27.9199 0H42.1337L43.5849 14.5671L58.886 14.0509L57.7013 0H73.0998C72.6894 0.899071 73.0786 1.76218 73.1061 2.61683C73.1357 3.50532 73.0321 4.45305 73.1019 5.33096C73.3177 8.02606 73.9798 10.6894 74.2866 13.3718C80.8381 13.3232 87.3813 13.3993 93.9138 13.5432L93.2284 5.17019L93.2348 0H109.987L111.077 13.7209C111.292 14.0297 114.675 13.8499 115.324 13.8732C115.773 13.8901 116.181 14.0446 116.663 14.0572C120.636 14.1567 124.628 13.9663 128.601 14.0509L128.432 0.00211546H143.153L143.999 13.374H160.244L160.413 0.00211546H179.535L180.21 13.3761C185.64 13.503 191.035 13.1561 196.457 13.2068L196.287 0.00423092H208.978C209.469 4.45728 208.838 8.91456 208.809 13.3782C211.144 13.2999 213.505 13.4776 215.841 13.3845C218.292 13.2893 220.738 12.8049 223.194 12.8684C223.298 8.56128 223.069 4.26689 222.517 0.00423092H234.023L233.008 13.3761H240.029L248.23 0H260.075V12.0179C254.617 15.2483 250.02 19.7732 244.448 22.8343C244.061 23.2659 244.499 25.3179 244.514 25.9758C244.575 28.4001 244.408 30.8456 244.501 33.2678C244.564 34.9686 244.899 36.7096 244.846 38.4253L260.075 38.0868V50.6124L245.184 50.9509C245.08 53.7285 245.324 56.5632 245.193 59.3366C245.093 61.4224 244.645 63.6712 244.507 65.7634C244.48 66.1801 244.951 66.0468 245.267 66.0151C249.889 65.5561 254.513 65.171 259.155 65.0081C259.476 64.9955 259.796 65.0251 260.077 64.8326V79.3891L243.325 79.5583C243.299 85.27 243.225 90.9776 243.832 96.6555L260.077 95.4708V109.52L244.171 110.197C244.137 111.121 244.219 112.062 244.171 112.989C243.921 117.611 243.399 122.616 243.318 127.207C243.314 127.406 243.327 127.607 243.325 127.801C248.901 127.416 254.469 126.701 260.077 126.617V143.035H253.056C249.853 143.49 246.542 143.642 243.399 144.209C243.166 148.611 243.562 153.016 243.663 157.424L260.077 157.084V169.779L243.832 170.963C243.54 176.313 243.708 181.686 243.663 187.045L260.077 186.368V200.248L243.663 201.094V221.576L260.077 220.391V235.117L243.325 236.386V250.689L260.077 249.165V263.045C254.568 263.073 249.123 264.122 243.665 264.739C243.695 266.176 243.623 267.625 243.655 269.061C243.741 272.772 244.09 276.523 244.338 280.227C244.37 280.709 244.2 282.226 244.497 282.437L260.075 282.002V297.235H244.676C244.66 303.567 244.621 309.894 245.186 316.192L260.075 315.517V327.535L245.343 328.286C245.169 328.406 245.197 328.614 245.176 328.796C244.915 330.947 245.269 333.82 245.19 336.09C245.159 337.012 244.674 339.168 244.92 339.902C245.097 340.433 247.712 341.763 248.383 342.191C252.292 344.679 256.079 347.357 260.073 349.709V367.822H254.152L243.629 351.349C242.965 350.625 242.32 349.015 241.207 349.013C240.534 349.013 239.176 349.576 238.404 349.637C238.102 355.683 238.163 361.782 238.753 367.82H225.555L225.724 349.876C222.707 349.91 219.682 349.836 216.663 349.87C216.217 349.876 215.796 350.058 215.316 350.062C214.707 350.067 212.418 349.565 212.09 350.037C212.064 355.962 212.942 361.894 213.37 367.822H193.742C192.655 362.243 192.877 356.527 192.217 350.896C187.711 351.084 183.188 350.976 178.68 351.232L179.357 367.822H161.42L160.568 358.943L160.915 351.571C154.977 351.698 149.079 351.321 143.147 351.402L143.316 367.822H124.533C124.59 366.106 124.459 364.369 124.527 362.652C124.563 361.767 124.635 360.676 124.704 359.783C124.922 356.984 125.652 354.183 125.631 351.399L112.181 351.909L111.673 367.822H98.4747L97.9607 361.143L97.967 352.25H84.261C84.4196 353.124 84.1129 354.078 84.0917 354.873C84.0685 355.709 84.2652 356.9 84.2694 357.744C84.2842 361.116 84.2462 364.469 84.5994 367.822H69.0318C68.9852 364.801 68.7864 361.786 68.8562 358.759C68.8964 356.98 69.1164 355.137 69.2094 353.356C69.2243 353.09 69.3512 352.309 68.9471 352.411L61.0036 352.933C58.3042 352.956 55.6599 353.162 52.9585 352.925C52.8696 357.911 52.9987 362.899 53.8047 367.822H37.2216L36.7075 361.143C36.8281 358.531 36.4938 355.836 36.8831 353.267C31.4738 353.066 26.0858 353.227 20.6617 353.289L15.0536 367.822H0V358.342C0.332128 358.347 0.469633 358.114 0.679063 357.921C3.68725 355.154 6.97679 352.138 10.3361 349.809C11.2056 349.206 12.0052 348.827 12.9466 348.357L13.5453 333.875C13.5707 333.45 13.3866 333.257 12.953 333.283L0 333.291V316.027L13.5368 316.281V297.068L0 296.391V275.232L13.3676 276.248C13.1645 268.258 13.063 260.223 13.027 252.212C8.58031 251.696 4.27535 250.405 0 249.163V226.651L8.20799 227.666L12.9509 227.846C13.0714 221.064 13.0291 214.29 13.2005 207.525L0.00211546 207.355V188.058L13.539 189.92V169.861C13.539 169.489 11.3304 169.586 10.9094 169.599C9.24457 169.649 7.512 169.901 5.84714 169.952C3.90514 170.011 1.94622 169.893 0.00211546 169.946V151.156L13.539 149.887V129.997L0.00211546 129.49V107.823L13.3697 107.992V90.8972L0.00211546 90.3895V76.0022C4.42978 76.2286 8.79397 75.3295 13.192 75.1476L14.0551 61.8773L14.0488 57.5511C9.36515 57.6717 4.64344 57.566 0.00423092 58.2302V36.2252L12.8641 35.7175C12.8282 34.6745 12.9064 33.621 12.8705 32.5781C12.8324 31.4062 12.5574 30.0353 12.5172 28.8697C12.4368 26.5215 12.6674 24.1818 12.606 21.8421C10.6979 20.2217 8.96533 18.1401 7.02122 16.5958C5.22096 15.1636 2.68452 13.2851 0.776375 12.0095C0.524635 11.8402 0.382899 11.6075 0.00211546 11.6837V0H12.6928H12.6907Z" fill="var(--fill-0, #F4F4ED)"/>
</g>
</svg>
