<svg preserveAspectRatio="none" width="100%" height="100%" overflow="visible" style="display: block;" viewBox="0 0 258.836 269.734" fill="none" xmlns="http://www.w3.org/2000/svg">
<g id="Asset 6 1" clip-path="url(#clip0_0_14)">
<path id="Vector" d="M256.333 32.362C256.175 26.5874 255.641 20.5908 255.577 14.9696C255.458 13.115 255.405 11.1504 254.21 10.1773C252.747 8.96381 249.967 9.18133 247.614 9.16072C221.827 10.6078 195.885 10.4292 170.039 10.9398C127.868 10.6673 85.6032 9.32329 43.4228 9.8316C32.7117 9.72627 22.083 10.2552 11.4292 10.7085C8.27174 11.1298 4.20986 10.6765 1.50118 12.0869C0.214384 13.0715 0.342605 15.6863 0.262467 17.4035C0.283074 23.2102 -0.337427 262.49 0.262467 269.208C0.262467 269.208 248.158 269.522 256.683 269.728C261.546 268.993 256.708 63.0985 256.335 32.3643L256.333 32.362ZM32.1713 43.7371C26.1541 42.5533 24.5673 35.2653 28.572 31.1645C33.0025 26.0906 42.1268 27.1186 43.0336 34.3334C43.8464 40.1629 37.9848 44.9277 32.1713 43.7371ZM63.201 43.7371C57.1837 42.5533 55.597 35.2653 59.6016 31.1645C64.0321 26.0906 73.1565 27.1186 74.0632 34.3334C74.876 40.1629 69.0145 44.9277 63.201 43.7371ZM94.2329 43.7371C88.2157 42.5533 86.6289 35.2653 90.6336 31.1645C95.0641 26.0906 104.188 27.1186 105.095 34.3334C105.908 40.1629 100.046 44.9277 94.2329 43.7371ZM125.263 43.7371C119.245 42.5533 117.659 35.2653 121.663 31.1645C126.091 26.0906 135.218 27.1186 136.125 34.3334C136.938 40.1629 131.076 44.9277 125.263 43.7371ZM156.295 43.7371C150.277 42.5533 148.691 35.2653 152.695 31.1645C157.126 26.0906 166.25 27.1186 167.157 34.3334C167.97 40.1629 162.108 44.9277 156.295 43.7371ZM187.324 43.7371C181.307 42.5533 179.72 35.2653 183.725 31.1645C188.155 26.0906 197.28 27.1186 198.186 34.3334C198.999 40.1629 193.138 44.9277 187.324 43.7371ZM218.356 43.7371C212.339 42.5533 210.752 35.2653 214.757 31.1645C219.187 26.0906 228.312 27.1186 229.218 34.3334C230.031 40.1629 224.17 44.9277 218.356 43.7371Z" fill="var(--fill-0, #FF8247)"/>
<path id="Vector_2" d="M206.881 1.75674C205.399 0.394384 203.226 -0.0177568 201.269 0.000560587C196.738 0.025747 194.294 4.12197 194.558 8.30978C194.478 9.95377 195.068 11.9549 197.108 11.0849C198.063 10.6201 197.951 9.51873 197.816 8.64407C197.779 7.73507 197.853 6.82149 198.008 5.92394C198.615 2.97027 202.45 2.59705 204.609 4.07618C205.081 4.55472 205.184 5.25078 205.326 5.88044C205.621 7.66867 205.857 9.46836 205.997 11.2772C205.905 13.9035 207.053 26.9866 204.099 27.2087C202.414 26.0753 202.954 23.5727 202.904 21.8188C202.904 18.6385 203 15.4673 203.105 12.2915C203.259 9.69961 200.438 8.89594 199.9 11.6916C199.785 13.4844 199.794 15.2841 199.71 17.0792C200.003 21.4479 197.997 28.5116 203.378 30.3776C208.905 31.0165 209.406 23.891 209.303 19.907C209.271 15.5429 209.834 4.81345 206.881 1.76132V1.75674ZM195.556 8.24109C195.664 8.18156 195.787 8.14035 195.897 8.10371C195.968 8.09455 196.041 8.06708 196.112 8.06937C195.922 8.09455 195.737 8.15637 195.556 8.24109Z" fill="var(--fill-0, #EAD110)"/>
</g>
<defs>
<clipPath id="clip0_0_14">
<rect width="258.836" height="269.734" fill="white"/>
</clipPath>
</defs>
</svg>
