<svg preserveAspectRatio="none" width="100%" height="100%" overflow="visible" style="display: block;" viewBox="0 0 263.174 380.114" fill="none" xmlns="http://www.w3.org/2000/svg">
<g id="Group">
<path id="Vector" d="M0.066407 152.278C0.294375 208.667 5.8916 312.071 2.952 377.414C2.93101 378.395 2.42708 379.223 3.22497 379.856C3.59392 380.084 4.20583 380.114 4.85074 380.114C15.1933 380.084 25.6588 380.057 36.0584 380.033C92.8135 379.886 148.033 379.733 205.421 379.586C221.487 379.541 237.597 379.505 253.933 379.457C255.736 379.529 257.113 379.724 258.276 378.494C260.061 359.111 258.705 339.029 259.539 319.228C260.28 300.538 261.231 281.854 261.762 263.151C264.048 214.519 263.469 165.833 260.667 117.252C260.289 86.9498 260.931 56.456 258.972 26.3042C258.828 23.8716 258.699 22.1258 258.6 21.6489C258.612 21.3639 257.958 21.4749 256.432 21.4389C229.453 21.6489 202.379 21.2589 175.308 21.7449C129.843 21.8198 85.1196 20.422 40.0118 21.1869C27.3026 21.8168 14.5604 21.4209 2.03413 22.7977C1.26324 23.0827 1.41022 23.2176 1.33823 23.6646C1.30223 24.0275 1.26624 24.5555 1.23324 25.2184C1.17625 67.4885 -0.31454 109.684 0.0604078 151.783L0.066407 152.278Z" fill="var(--fill-0, #87A4FF)"/>
<path id="Vector_2" d="M47.8877 47.8897C47.7797 48.0367 57.7143 48.0637 61.9407 47.8147C67.8469 47.7877 83.3518 47.8207 83.4148 46.2789C83.4148 46.2729 83.4088 46.2639 83.4058 46.2579C83.9367 45.58 83.6157 44.6202 83.6697 43.8163C83.6517 40.0338 82.2569 2.63803 80.4392 2.27208C76.5157 1.80414 50.5453 2.824 47.8427 3.5259C44.7111 4.39878 46.9368 38.1411 47.8907 47.8927L47.8877 47.8897Z" fill="var(--fill-0, #EF7E29)"/>
<path id="Vector_3" d="M178.444 45.95C178.462 46.103 178.528 46.238 178.624 46.349C178.714 46.6879 200.877 45.4161 211.613 44.9751C212.294 45.0561 212.852 44.7772 213.086 44.4172C213.164 44.4172 211.982 15.6722 211.457 8.74019C211.322 6.88945 211.157 5.03571 210.812 3.20896C210.596 2.28209 210.524 1.22624 209.876 0.473344C208.982 -0.261553 207.654 0.0833987 206.58 0.0654013C198.523 0.443349 180.567 0.689314 179.637 0.779302C178.792 0.86329 177.865 0.920282 177.274 1.61319C175.897 4.13883 178.378 45.3861 178.447 45.947L178.444 45.95Z" fill="var(--fill-0, #EF7E29)"/>
<path id="Vector_4" d="M228.217 349.485C229.365 350.661 230.634 351.813 232.194 352.398C232.674 352.596 233.289 352.506 233.538 352.011C233.94 351.918 234.225 351.606 234.444 351.276C235.566 349.824 236.771 348.429 237.854 346.939C240.527 343.198 246.055 335.822 245.437 331.179C244.861 327.15 240.014 329.097 237.701 330.39C234.903 332.055 232.797 334.904 231.666 337.931C229.782 334.853 227.488 331.386 223.852 330.312C221.093 329.865 219.866 331.857 219.809 334.358C219.575 337.988 221.198 341.371 223.411 344.152C224.77 346.144 226.525 347.785 228.22 349.485H228.217Z" fill="var(--fill-0, #FFF181)"/>
</g>
</svg>
