<svg width="287" height="405" viewBox="0 0 287 405" fill="none" xmlns="http://www.w3.org/2000/svg">
<g clip-path="url(#clip0_179_2015)">
<g clip-path="url(#clip1_179_2015)">
<path d="M-1.92688 167.669C-1.67587 229.758 4.48714 343.615 1.2504 415.563C1.22728 416.643 0.672415 417.555 1.55096 418.251C1.9572 418.502 2.63097 418.535 3.34107 418.535C14.7291 418.502 26.2525 418.473 37.7033 418.446C100.195 418.284 160.996 418.116 224.185 417.954C241.875 417.905 259.614 417.865 277.601 417.812C279.586 417.891 281.102 418.106 282.384 416.752C284.349 395.409 282.856 373.297 283.774 351.495C284.59 330.916 285.637 310.343 286.222 289.75C288.738 236.202 288.101 182.594 285.016 129.102C284.6 95.7374 285.307 62.1612 283.15 28.9616C282.992 26.283 282.85 24.3608 282.741 23.8356C282.754 23.5219 282.034 23.6441 280.353 23.6044C250.647 23.8356 220.836 23.4063 191.029 23.9413C140.968 24.0239 91.7237 22.4848 42.0564 23.327C28.0624 24.0206 14.0322 23.5846 0.239749 25.1006C-0.609067 25.4144 -0.447231 25.563 -0.526498 26.0551C-0.566131 26.4547 -0.605765 27.036 -0.642095 27.766C-0.704848 74.3089 -2.34633 120.769 -1.93349 167.124L-1.92688 167.669Z" fill="#87A4FF"/>
<path d="M50.7229 52.7286C50.604 52.8904 61.5428 52.9202 66.1964 52.646C72.6996 52.6163 89.7717 52.6526 89.8411 50.955C89.8411 50.9484 89.8345 50.9385 89.8312 50.9319C90.4158 50.1855 90.0624 49.1286 90.1218 48.2434C90.102 44.0786 88.5662 2.90273 86.5647 2.49979C82.2447 1.98456 53.6491 3.1075 50.6733 3.88036C47.2252 4.84147 49.6759 41.9945 50.7262 52.7319L50.7229 52.7286Z" fill="#EF7E29"/>
<path d="M194.48 50.5948C194.5 50.7632 194.573 50.9118 194.678 51.034C194.777 51.4073 219.182 50.0069 231.002 49.5214C231.752 49.6105 232.366 49.3034 232.624 48.9071C232.71 48.9071 231.409 17.2564 230.831 9.62368C230.682 7.58586 230.5 5.54473 230.121 3.53334C229.883 2.51277 229.803 1.35019 229.09 0.521192C228.106 -0.287992 226.643 0.091829 225.46 0.0720122C216.589 0.488164 196.819 0.758992 195.795 0.858076C194.863 0.950554 193.843 1.01331 193.192 1.77625C191.676 4.5572 194.407 49.9738 194.483 50.5915L194.48 50.5948Z" fill="#EF7E29"/>
<path d="M249.282 384.813C250.547 386.108 251.944 387.376 253.662 388.02C254.19 388.238 254.867 388.139 255.142 387.594C255.584 387.492 255.898 387.148 256.139 386.785C257.374 385.187 258.702 383.651 259.894 382.009C262.837 377.891 268.924 369.769 268.244 364.656C267.61 360.221 262.272 362.364 259.726 363.788C256.644 365.621 254.326 368.759 253.081 372.091C251.006 368.702 248.48 364.884 244.477 363.702C241.438 363.21 240.087 365.403 240.025 368.157C239.767 372.154 241.554 375.879 243.991 378.941C245.488 381.134 247.42 382.941 249.286 384.813H249.282Z" fill="#FFF181"/>
</g>
</g>
<defs>
<clipPath id="clip0_179_2015">
<rect width="286.364" height="405" fill="white"/>
</clipPath>
<clipPath id="clip1_179_2015">
<rect width="290" height="405" fill="white" transform="translate(-2)"/>
</clipPath>
</defs>
</svg>
