<svg width="287" height="405" viewBox="0 0 287 405" fill="none" xmlns="http://www.w3.org/2000/svg">
<g clip-path="url(#clip0_179_2289)">
<g clip-path="url(#clip1_179_2289)" filter="url(#filter0_dddd_179_2289)">
<path d="M285.908 84.4315C286.557 63.6128 287.096 41.924 284.12 21.6183C278.528 19.7419 271.566 20.2833 265.555 20.2748C261.598 20.1614 257.627 20.1813 253.664 20.1302C253.656 22.7974 252.97 25.4844 253.001 28.1573C253.041 29.0785 253.106 29.9996 253.18 30.918C255.569 31.7315 257.785 33.2705 259.478 35.5069C268.213 45.3423 257.051 58.0375 245.515 56.1158C237.154 54.1317 233.137 42.8083 238.767 36.3685C239.801 34.529 241.167 33.1146 242.721 32.1113C242.403 28.4407 242.585 24.7503 243.109 21.0883C243.109 20.7141 243.149 20.3542 243.191 19.9999C233.172 19.9885 223.149 20.0906 213.146 20.374C212.075 20.4194 211.006 20.4307 209.935 20.4732C210.009 20.9466 210.082 21.4256 210.162 21.8479C210.457 24.2373 210.868 27.5479 210.496 30.49C213.583 31.4338 216.208 33.7807 217.701 37.3351C224.056 48.8456 212.803 59.707 200.831 55.3137C191.426 50.9459 188.941 35.745 200.1 32.1793C199.949 31.448 199.896 30.7054 199.955 30.0081C200.258 27.5167 200.037 23.883 199.561 21.7799C199.513 21.4539 199.434 21.1251 199.363 20.7935C188.844 21.1053 178.329 21.3122 167.813 21.3944C167.799 24.5151 167.66 27.6386 167.813 30.7621C167.822 30.8698 167.819 30.986 167.822 31.0966C172.084 32.9332 175.293 37.4796 175.866 41.9041C177.841 51.1188 167.053 59.0863 158.403 55.3845C149.766 52.159 146.668 41.0992 152.893 34.2938C154.077 32.8964 155.619 31.9129 157.314 31.2808C156.901 28.1063 157.331 24.4442 157.371 21.4624C146.206 21.4936 135.042 21.4454 123.874 21.3632C123.71 23.6251 123.194 25.8954 123.222 28.1544C123.262 29.0756 123.327 29.9968 123.401 30.9151C125.79 31.7286 128.007 33.2677 129.696 35.504C138.432 45.3394 127.27 58.0347 115.737 56.113C107.372 54.1289 103.359 42.8055 108.985 36.3657C110.02 34.5262 111.389 33.1118 112.939 32.1084C112.627 28.5031 112.806 24.8835 113.307 21.2867C102.287 21.1903 91.2671 21.1053 80.247 21.0401C80.2895 21.3065 80.332 21.5985 80.3773 21.8422C80.6721 24.2316 81.0831 27.5422 80.709 30.4843C83.7956 31.4282 86.4203 33.7751 87.914 37.3294C94.2688 48.8399 83.0162 59.7013 71.0437 55.308C61.6391 50.9402 59.1533 35.7393 70.3124 32.1736C70.1622 31.4423 70.1083 30.6997 70.1678 30.0025C70.4711 27.511 70.25 23.8773 69.7739 21.7742C69.7342 21.5191 69.669 21.2555 69.618 20.9976C59.0882 20.9692 48.5584 20.9891 38.0285 21.1138C38.0229 24.328 37.8698 27.5422 38.0285 30.7564C38.037 30.8641 38.0342 30.9803 38.037 31.0909C42.3 32.9276 45.5085 37.474 46.0811 41.8985C48.0567 51.1131 37.2689 59.0806 28.6212 55.3789C19.9847 52.1533 16.8867 41.0935 23.1111 34.2881C24.2959 32.8907 25.8378 31.9072 27.5328 31.2751C27.1133 28.0439 27.5611 24.3082 27.5866 21.3037C21.4898 21.4171 15.3958 21.5219 9.29904 21.7232C6.41645 21.8281 1.57813 22.0661 0.370671 23.3246C-0.675224 36.7002 0.841182 50.8892 0.274301 64.5085C-0.14519 85.9111 0.798666 107.169 1.7737 128.552C0.274301 153.364 0.393346 178.012 0.790162 202.935C2.79125 258.968 8.06041 315.155 2.83093 371.128L2.78558 371.644C2.85361 374.065 0.671117 379.535 3.91934 379.802C9.89143 379.532 16.1158 380.482 22.0907 381.035C64.7485 385.122 107.874 383.656 150.69 385.337C180.256 386.253 209.527 380.746 239.01 380.128C251.811 379.104 280.285 380.731 281.589 381.44C282.731 381.04 282.867 380.306 282.929 378.954C290.568 281.034 283.485 182.556 285.9 84.4287L285.908 84.4315Z" fill="#F995D6"/>
</g>
</g>
<defs>
<filter id="filter0_dddd_179_2289" x="-2.70501" y="14.59" width="334.386" height="395.2" filterUnits="userSpaceOnUse" color-interpolation-filters="sRGB">
<feFlood flood-opacity="0" result="BackgroundImageFix"/>
<feColorMatrix in="SourceAlpha" type="matrix" values="0 0 0 0 0 0 0 0 0 0 0 0 0 0 0 0 0 0 127 0" result="hardAlpha"/>
<feOffset dx="1.80334" dy="0.901669"/>
<feGaussianBlur stdDeviation="2.25417"/>
<feColorMatrix type="matrix" values="0 0 0 0 0 0 0 0 0 0 0 0 0 0 0 0 0 0 0.1 0"/>
<feBlend mode="normal" in2="BackgroundImageFix" result="effect1_dropShadow_179_2289"/>
<feColorMatrix in="SourceAlpha" type="matrix" values="0 0 0 0 0 0 0 0 0 0 0 0 0 0 0 0 0 0 127 0" result="hardAlpha"/>
<feOffset dx="8.11503" dy="2.70501"/>
<feGaussianBlur stdDeviation="4.05751"/>
<feColorMatrix type="matrix" values="0 0 0 0 0 0 0 0 0 0 0 0 0 0 0 0 0 0 0.09 0"/>
<feBlend mode="normal" in2="effect1_dropShadow_179_2289" result="effect2_dropShadow_179_2289"/>
<feColorMatrix in="SourceAlpha" type="matrix" values="0 0 0 0 0 0 0 0 0 0 0 0 0 0 0 0 0 0 127 0" result="hardAlpha"/>
<feOffset dx="18.0334" dy="6.31169"/>
<feGaussianBlur stdDeviation="5.86085"/>
<feColorMatrix type="matrix" values="0 0 0 0 0 0 0 0 0 0 0 0 0 0 0 0 0 0 0.05 0"/>
<feBlend mode="normal" in2="effect2_dropShadow_179_2289" result="effect3_dropShadow_179_2289"/>
<feColorMatrix in="SourceAlpha" type="matrix" values="0 0 0 0 0 0 0 0 0 0 0 0 0 0 0 0 0 0 127 0" result="hardAlpha"/>
<feOffset dx="31.5584" dy="10.82"/>
<feGaussianBlur stdDeviation="6.76252"/>
<feColorMatrix type="matrix" values="0 0 0 0 0 0 0 0 0 0 0 0 0 0 0 0 0 0 0.01 0"/>
<feBlend mode="normal" in2="effect3_dropShadow_179_2289" result="effect4_dropShadow_179_2289"/>
<feBlend mode="normal" in="SourceGraphic" in2="effect4_dropShadow_179_2289" result="shape"/>
</filter>
<clipPath id="clip0_179_2289">
<rect width="286.364" height="405" fill="white"/>
</clipPath>
<clipPath id="clip1_179_2289">
<rect width="286.598" height="365.445" fill="white" transform="translate(0 20)"/>
</clipPath>
</defs>
</svg>
