<svg width="287" height="405" viewBox="0 0 287 405" fill="none" xmlns="http://www.w3.org/2000/svg">
<g clip-path="url(#clip0_179_2005)">
<path d="M0 21.0948C0.737173 171.527 0.082481 263.441 1.49754 413.526C91.7781 415.694 184.51 416.075 275.131 417.652C278.448 417.431 284.245 419.258 284.363 414.49C282.871 379.002 283.541 403.579 285.17 368.125C285.098 325.48 284.871 282.866 286 240.19C285.268 175.174 285.905 29.5516 285.827 21.8448C285.778 19.4709 283.672 19.94 281.147 19.8704C187.732 21.1154 91.3141 16.6099 0.00257753 20.7081V21.0948H0ZM41.0575 282.003C40.9002 282.175 40.8074 282.405 40.8152 282.642C40.8332 283.142 41.2508 283.505 41.7379 283.505C41.9828 283.505 42.2019 283.392 42.3565 283.222C42.1993 283.394 41.9802 283.505 41.7353 283.505C41.2508 283.505 40.8306 283.142 40.8126 282.642C40.8049 282.407 40.8976 282.175 41.0549 282.003H41.0575Z" fill="#F4F4ED"/>
<path d="M203.807 36.6683C203.738 37.1889 203.426 37.64 202.939 37.9184C200.786 38.7509 198.286 38.8901 195.822 38.9262C194.989 38.9597 194.19 38.9262 193.391 38.9262H191.448C188.533 38.787 185.651 38.6839 182.767 38.6478C181.968 38.6117 181.169 38.5782 180.37 38.5782C176.586 38.5086 172.836 38.439 169.121 38.439H166.691C162.941 38.439 159.193 38.439 155.406 38.5086H153.357L153.009 38.5421H152.801C148.841 38.6117 144.849 38.7148 140.823 38.854C140.024 38.854 139.225 38.8901 138.426 38.9236C134.018 39.0963 129.572 39.2716 125.128 39.5139C124.329 39.5474 123.53 39.5834 122.767 39.653C118.705 39.8618 114.643 40.1041 110.581 40.3825C109.818 40.416 109.019 40.4856 108.22 40.5217C104.539 40.764 100.858 41.0423 97.2135 41.3568C96.4506 41.3903 95.6515 41.4599 94.8886 41.5295H94.7494C90.2697 41.7022 90.7233 35.0367 90.3753 31.1472C90.3393 30.6265 90.2722 30.1755 90.2026 29.7914C90.1691 29.4099 90.133 28.9924 90.133 28.6109C89.7851 23.5409 89.334 18.4709 89.0221 13.4009L88.919 10.9007C88.8159 9.30264 88.7798 7.74066 88.7463 6.17867C88.8494 3.46969 91.6641 3.12172 94.0225 2.56756C94.3705 2.49796 94.7159 2.42837 95.0304 2.32527C95.4814 2.25567 95.9686 2.18608 96.4196 2.11649C100.899 1.42313 105.377 0.93598 109.89 0.624099C110.653 0.554506 111.452 0.520998 112.251 0.451404C116.071 0.242625 119.888 0.103438 123.744 0.0338448C124.543 0.0338448 125.342 -0.00224059 126.139 0.0338448C130.582 -0.0357485 135.026 0.0338448 139.472 0.139523C140.271 0.139523 141.07 0.173031 141.867 0.173031C145.687 0.312218 149.506 0.415319 153.324 0.554506C154.123 0.588014 154.886 0.624099 155.685 0.657607C159.262 0.763285 162.801 0.866387 166.379 0.972065C167.142 1.00557 167.941 1.00557 168.704 1.04166C172.905 1.11125 177.071 1.18085 181.272 1.11125C182.071 1.14734 182.834 1.11125 183.633 1.07517C186.272 1.07517 188.909 1.00557 191.549 0.866387C192.105 0.93598 192.799 0.93598 193.528 0.902472C194.327 0.866387 195.16 0.832879 195.889 0.902472C197.209 1.00557 198.32 1.38962 198.668 2.74283C198.737 5.73018 199.291 8.64537 199.951 11.5296C200.124 12.3982 200.333 13.2308 200.541 14.0994C201.304 17.226 202.034 20.3499 202.348 23.6492C202.451 25.1776 202.627 26.8092 202.836 28.4408C202.939 29.3094 203.044 30.178 203.147 31.0106C203.39 32.9901 203.632 34.9001 203.807 36.6708V36.6683Z" fill="#DDD431"/>
<path d="M202.836 28.4355C200.648 28.402 198.426 28.3659 196.204 28.2963C196.237 27.9844 196.237 27.706 196.237 27.4276C196.41 22.9814 196.377 18.5713 196.307 14.1611C197.73 14.1276 199.119 14.1276 200.542 14.0915C200.333 13.2229 200.127 12.3903 199.952 11.5217C198.702 11.5217 197.488 11.5578 196.237 11.5913C196.132 8.50085 196.029 5.40782 195.926 2.31736C195.926 1.8663 195.926 1.37914 195.889 0.894567C195.16 0.824974 194.327 0.858481 193.528 0.894567V1.03375C193.632 4.57528 193.737 8.11938 193.84 11.6609C190.471 11.7305 187.105 11.8336 183.703 11.9032C183.806 8.29207 183.806 4.68096 183.633 1.06726C182.834 1.10335 182.071 1.13685 181.272 1.10335C181.445 4.71446 181.445 8.36167 181.342 11.9393C177.316 12.045 173.287 12.0785 169.225 12.0089C169.122 8.32816 168.983 4.68096 168.704 1.03375C167.941 1.00025 167.142 1.00025 166.379 0.96416C166.658 4.61136 166.761 8.29207 166.866 11.9728C163.186 11.8671 159.541 11.6944 155.894 11.4856C155.858 7.87451 155.791 4.2634 155.685 0.649702C154.886 0.616194 154.123 0.580108 153.324 0.5466C153.358 2.76843 153.427 4.92324 153.463 7.10899C153.499 8.53436 153.533 9.95716 153.533 11.38C149.679 11.1712 145.86 10.9289 142.006 10.7897C142.042 7.76884 142.042 4.78148 141.903 1.76062C141.903 1.23996 141.903 0.68321 141.867 0.162549C141.068 0.162549 140.272 0.129041 139.472 0.129041C139.645 3.67057 139.645 7.17858 139.612 10.7201H139.509C135.168 10.5474 130.794 10.5474 126.453 10.5809C126.453 8.2895 126.42 6.03158 126.314 3.77367C126.281 2.52357 126.245 1.27346 126.142 0.0233622C125.342 -0.0127232 124.543 0.0233622 123.747 0.0233622C124.025 3.53138 123.989 7.0729 124.025 10.5809C119.927 10.6505 115.867 10.7201 111.769 10.8232C111.769 10.7536 111.769 10.7201 111.805 10.6505C112.153 7.24817 112.256 3.84326 112.256 0.440922C111.457 0.510515 110.658 0.544023 109.895 0.613616C109.826 4.05204 109.687 7.42087 109.411 10.8593C105.106 10.9624 100.799 11.032 96.4613 10.9985C96.4948 8.04721 96.4948 5.05985 96.4252 2.10858C95.9741 2.17818 95.4869 2.24777 95.0359 2.31736C94.724 2.42304 94.376 2.49263 94.0281 2.55965C94.0281 5.37173 94.0281 8.18639 94.0642 10.9985C92.7445 10.965 91.3913 10.965 90.0355 10.9289C89.654 10.8954 89.306 10.8954 88.9246 10.8954L89.0277 13.3956C89.7906 13.3956 90.5561 13.4291 91.2856 13.4652C92.2238 13.5013 93.1594 13.5013 94.0977 13.5013C94.1673 18.5017 94.2704 23.4686 94.4456 28.469C93.0228 28.5386 91.564 28.6082 90.1412 28.6082C90.1412 28.9896 90.1772 29.4072 90.2107 29.7887C90.2803 30.1701 90.3499 30.6212 90.3834 31.1444C91.7727 31.1084 93.162 31.0388 94.5487 30.9692C94.5822 32.3945 94.6518 33.7813 94.7214 35.2066C94.7549 37.3254 94.791 39.408 94.8941 41.5267C95.6571 41.4571 96.4561 41.3875 97.219 41.354V40.9365C97.219 37.5676 97.0799 34.1988 96.9407 30.83C100.794 30.5851 104.614 30.3428 108.467 30.2397C108.398 33.0183 108.328 35.8304 108.295 38.609C108.259 39.2353 108.259 39.8926 108.225 40.5189C109.024 40.4854 109.823 40.4158 110.586 40.3797C110.62 40.171 110.62 39.9287 110.62 39.7199C110.689 36.5263 110.759 33.3302 110.828 30.1701H113.988C117.079 30.2397 120.133 30.3093 123.224 30.3428C123.085 32.2193 122.945 34.1292 122.876 36.0031C122.84 37.2197 122.77 38.4337 122.77 39.6503C123.533 39.5807 124.332 39.5472 125.131 39.5111C125.165 37.7738 125.234 36.0392 125.34 34.3019C125.443 32.9822 125.582 31.6625 125.652 30.3763C130.026 30.4124 134.4 30.4459 138.777 30.5155C138.707 31.9744 138.637 33.3972 138.568 34.8561C138.534 36.2093 138.465 37.5651 138.429 38.9183C139.228 38.8848 140.027 38.8487 140.826 38.8487C140.826 38.3615 140.826 37.9105 140.859 37.4259C140.929 35.1345 141.032 32.843 141.171 30.549C142.315 30.549 143.463 30.5825 144.607 30.6186C147.522 30.6882 150.44 30.7217 153.358 30.7217C153.255 33.3611 153.149 35.9309 153.01 38.5368L153.358 38.5033H155.407C155.546 35.9335 155.649 33.2941 155.719 30.7578C159.469 30.7578 163.217 30.6882 166.967 30.6547C167.003 33.2606 166.864 35.8639 166.689 38.4337H169.119C169.155 37.9826 169.155 37.5651 169.189 37.114C169.222 34.9618 169.258 32.8069 169.292 30.6212C173.042 30.5851 176.793 30.5516 180.54 30.5181C180.437 33.2271 180.368 35.9 180.368 38.5755C181.167 38.5755 181.966 38.609 182.765 38.6451C182.798 35.9361 182.798 33.2271 182.904 30.5542C186.515 30.5542 190.126 30.5877 193.737 30.6934C193.634 33.4359 193.528 36.2144 193.389 38.9234C194.188 38.9234 194.987 38.9569 195.82 38.9234C195.889 36.2144 195.993 33.5055 196.098 30.7965L198.702 30.9022C200.16 30.9357 201.653 30.9717 203.145 31.0053C203.04 30.1727 202.936 29.3041 202.833 28.4355H202.836ZM109.197 13.643C108.815 18.298 108.64 23.0201 108.537 27.7086C104.614 27.8117 100.724 28.0901 96.8376 28.3324C96.7319 25.6569 96.5953 23.0201 96.5257 20.3446C96.4922 18.0867 96.4561 15.8288 96.4561 13.5373C100.727 13.5734 104.962 13.5038 109.197 13.3982V13.6404V13.643ZM123.433 27.8117C120.272 27.7756 117.185 27.7421 114.058 27.639H110.898C111.037 22.8809 111.246 18.1228 111.591 13.3311C115.723 13.2615 119.888 13.1584 124.02 13.0889C124.02 13.4007 124.02 13.6791 124.056 13.9575C124.159 18.5764 123.778 23.1953 123.43 27.8143L123.433 27.8117ZM138.916 27.9844C134.575 27.9483 130.201 27.9148 125.861 27.8452C126.209 22.9144 126.417 18.0171 126.451 13.0863C127.943 13.0502 129.436 13.0502 130.964 13.0863C133.812 13.0863 136.658 13.1559 139.539 13.2255C139.4 18.1563 139.158 23.0897 138.913 27.9844H138.916ZM153.43 28.2293C151.138 28.2293 148.847 28.1932 146.556 28.1597C144.785 28.0901 143.05 28.0566 141.279 28.0566C141.558 23.1593 141.8 18.2284 141.939 13.3311C145.829 13.5038 149.682 13.7126 153.569 13.9214C153.602 18.6795 153.535 23.4711 153.43 28.2293ZM155.791 28.2293C155.93 23.5072 155.964 18.7826 155.93 14.0245C159.575 14.2333 163.222 14.406 166.866 14.4756C166.936 19.0584 166.936 23.6103 166.936 28.1597C163.222 28.1932 159.505 28.2293 155.791 28.2293ZM180.649 28.0205C176.865 28.054 173.081 28.0901 169.331 28.1236C169.364 23.6077 169.4 19.0584 169.294 14.5091C170.545 14.5426 171.828 14.5426 173.078 14.5426C175.821 14.5091 178.53 14.473 181.236 14.4395C181.097 18.9553 180.855 23.5046 180.646 28.0179L180.649 28.0205ZM193.809 28.2293C191.969 28.1597 190.095 28.0901 188.255 28.0205H183.012C183.221 23.4711 183.499 18.9553 183.638 14.406C187.077 14.3364 190.477 14.2668 193.915 14.1972C193.985 17.6356 194.018 21.074 193.949 24.546C193.915 25.7626 193.879 26.9766 193.809 28.2267V28.2293Z" fill="#131314"/>
</g>
<defs>
<clipPath id="clip0_179_2005">
<rect width="286" height="405" fill="white"/>
</clipPath>
</defs>
</svg>
