<svg width="287" height="405" viewBox="0 0 287 405" fill="none" xmlns="http://www.w3.org/2000/svg">
<g clip-path="url(#clip0_179_1971)">
<path d="M286.363 0H-0.000610352V405H286.363V0Z" fill="#FF661E"/>
<path d="M13.9729 0L21.0516 16.2143H31.8572L30.7415 0H46.392L47.9899 16.0396L64.8378 15.4712L63.5334 0H80.4883C80.0365 0.989952 80.465 1.94031 80.4953 2.88134C80.5279 3.85965 80.4138 4.90318 80.4907 5.86984C80.7283 8.83736 81.4573 11.77 81.7951 14.7235C89.0089 14.6699 96.2134 14.7538 103.406 14.9122L102.652 5.69281L102.659 0H121.104L122.304 15.1078C122.542 15.4479 126.266 15.2499 126.981 15.2755C127.475 15.2942 127.925 15.4642 128.456 15.4782C132.83 15.5877 137.225 15.378 141.6 15.4712L141.413 0.0023293H157.623L158.555 14.7258H176.442L176.628 0.0023293H197.682L198.425 14.7282C204.405 14.8679 210.344 14.4859 216.314 14.5418L216.128 0.0046586H230.102C230.642 4.90783 229.948 9.81567 229.915 14.7305C232.487 14.6443 235.086 14.84 237.658 14.7375C240.357 14.6327 243.05 14.0993 245.754 14.1691C245.869 9.42668 245.617 4.6982 245.009 0.0046586H257.678L256.56 14.7282H264.291L273.322 0H286.363V13.2328C280.354 16.7896 275.292 21.772 269.157 25.1425C268.731 25.6176 269.213 27.8771 269.229 28.6015C269.297 31.2708 269.113 33.9635 269.215 36.6306C269.285 38.5033 269.653 40.4203 269.595 42.3094L286.363 41.9367V55.7285L269.968 56.1012C269.853 59.1596 270.121 62.2808 269.977 65.3345C269.867 67.6312 269.374 70.1073 269.222 72.4109C269.192 72.8698 269.711 72.7231 270.058 72.6881C275.148 72.1827 280.24 71.7587 285.35 71.5794C285.704 71.5654 286.056 71.598 286.366 71.386V87.414L267.92 87.6003C267.892 93.8894 267.811 100.174 268.479 106.426L286.366 105.121V120.59L268.852 121.336C268.815 122.353 268.905 123.39 268.852 124.41C268.577 129.5 268.002 135.011 267.913 140.065C267.908 140.284 267.922 140.506 267.92 140.72C274.06 140.296 280.191 139.509 286.366 139.416V157.493H278.635C275.108 157.994 271.463 158.162 268.002 158.786C267.745 163.633 268.181 168.483 268.293 173.337L286.366 172.962V186.94L268.479 188.245C268.158 194.135 268.342 200.052 268.293 205.952L286.366 205.207V220.489L268.293 221.421V243.973L286.366 242.669V258.883L267.92 260.281V276.029L286.366 274.352V289.634C280.3 289.665 274.305 290.82 268.295 291.5C268.328 293.082 268.249 294.677 268.283 296.259C268.379 300.345 268.763 304.474 269.036 308.553C269.071 309.084 268.884 310.754 269.211 310.987L286.363 310.507V327.281H269.409C269.39 334.252 269.348 341.219 269.97 348.153L286.363 347.41V360.643L270.142 361.47C269.951 361.603 269.982 361.831 269.958 362.031C269.672 364.4 270.061 367.563 269.975 370.063C269.94 371.078 269.406 373.452 269.676 374.26C269.872 374.845 272.751 376.31 273.489 376.781C277.794 379.52 281.963 382.469 286.361 385.059V405.002H279.841L268.256 386.864C267.524 386.067 266.814 384.295 265.588 384.293C264.848 384.293 263.352 384.912 262.502 384.98C262.169 391.637 262.237 398.352 262.886 405H248.354L248.54 385.243C245.219 385.28 241.888 385.199 238.564 385.236C238.072 385.243 237.609 385.443 237.08 385.448C236.409 385.453 233.889 384.9 233.528 385.42C233.5 391.944 234.467 398.476 234.937 405.002H213.326C212.129 398.86 212.373 392.566 211.647 386.366C206.685 386.573 201.705 386.454 196.741 386.736L197.487 405.002H177.737L176.798 395.226L177.18 387.109C170.642 387.248 164.147 386.834 157.616 386.922L157.802 405.002H137.121C137.183 403.113 137.039 401.201 137.114 399.31C137.153 398.336 137.232 397.134 137.309 396.151C137.549 393.069 138.353 389.985 138.33 386.92L123.52 387.481L122.961 405.002H108.428L107.862 397.649L107.869 387.856H92.7777C92.9524 388.818 92.6147 389.869 92.5914 390.745C92.5658 391.665 92.7824 392.976 92.787 393.906C92.8033 397.618 92.7614 401.31 93.1504 405.002H76.0091C75.9579 401.676 75.7389 398.357 75.8158 395.024C75.86 393.065 76.1023 391.036 76.2048 389.075C76.2211 388.781 76.3608 387.922 75.9159 388.033L67.1694 388.609C64.1972 388.634 61.2856 388.86 58.3111 388.599C58.2132 394.09 58.3553 399.582 59.2428 405.002H40.9834L40.4174 397.649C40.5502 394.772 40.1821 391.805 40.6107 388.977C34.6547 388.755 28.722 388.933 22.7497 389L16.5747 405.002H-0.000610352V394.565C0.36509 394.569 0.516494 394.313 0.747095 394.101C4.05936 391.055 7.68142 387.733 11.3803 385.168C12.3377 384.504 13.2182 384.088 14.2547 383.57L14.9139 367.624C14.9418 367.156 14.7392 366.944 14.2617 366.972L-0.000610352 366.981V347.972L14.9046 348.251V327.097L-0.000610352 326.351V303.054L14.7182 304.172C14.4946 295.374 14.3828 286.527 14.3432 277.706C9.44703 277.138 4.7069 275.717 -0.000610352 274.35V249.561L9.03707 250.679L14.2594 250.877C14.3921 243.41 14.3455 235.951 14.5342 228.502L0.00171895 228.316V207.068L14.9069 209.118V187.031C14.9069 186.621 12.4751 186.728 12.0116 186.742C10.1784 186.798 8.27073 187.075 6.43757 187.131C4.29928 187.197 2.14235 187.066 0.00171895 187.124V166.435L14.9069 165.038V143.138L0.00171895 142.579V118.722L14.7206 118.908V100.085L0.00171895 99.5263V83.6847C4.87694 83.934 9.68229 82.944 14.5249 82.7437L15.4753 68.132L15.4683 63.3686C10.3112 63.5014 5.1122 63.3849 0.00404825 64.1163V39.8869L14.1639 39.3279C14.1243 38.1796 14.2104 37.0196 14.1708 35.8712C14.1289 34.5808 13.8261 33.0714 13.7819 31.788C13.6933 29.2024 13.9472 26.6262 13.8797 24.05C11.7787 22.2658 9.87096 19.9737 7.73033 18.2734C5.7481 16.6964 2.95527 14.628 0.854243 13.2234C0.577056 13.0371 0.420993 12.7809 0.00171895 12.8647V0H13.9752H13.9729Z" fill="#F4F4ED"/>
<rect x="9" y="9" width="269" height="388" fill="#F4F4ED"/>
</g>
<defs>
<clipPath id="clip0_179_1971">
<rect width="286.364" height="405" fill="white"/>
</clipPath>
</defs>
</svg>
