<svg preserveAspectRatio="none" width="100%" height="100%" overflow="visible" style="display: block;" viewBox="0 0 259.744 367.82" fill="none" xmlns="http://www.w3.org/2000/svg">
<g id="Asset 4 2" clip-path="url(#clip0_0_4)">
<path id="Vector" d="M-2.6206e-05 19.1587C0.669472 155.781 0.0748828 239.257 1.36004 375.563C83.3525 377.532 167.571 377.879 249.873 379.311C252.885 379.11 258.15 380.77 258.258 376.439C256.902 344.209 257.511 366.53 258.99 334.331C258.925 295.601 258.719 256.899 259.744 218.14C259.079 159.093 259.658 26.8393 259.587 19.84C259.543 17.684 257.63 18.11 255.336 18.0468C170.497 19.1775 82.9311 15.0856 0.0023147 18.8076V19.1587H-2.6206e-05ZM37.2882 256.114C37.1454 256.271 37.0611 256.48 37.0682 256.695C37.0846 257.149 37.4638 257.479 37.9062 257.479C38.1286 257.479 38.3276 257.376 38.468 257.222C38.3252 257.378 38.1263 257.479 37.9039 257.479C37.4638 257.479 37.0822 257.149 37.0658 256.695C37.0588 256.482 37.1431 256.271 37.2859 256.114H37.2882Z" fill="var(--fill-0, #F4F4ED)"/>
<g id="Group">
<path id="Vector_2" d="M185.099 33.3034C185.036 33.7762 184.753 34.1859 184.31 34.4387C182.356 35.1948 180.085 35.3212 177.847 35.354C177.091 35.3844 176.365 35.354 175.64 35.354H173.874C171.227 35.2276 168.61 35.1339 165.99 35.1012C165.265 35.0684 164.539 35.038 163.813 35.038C160.377 34.9748 156.971 34.9116 153.598 34.9116H151.39C147.984 34.9116 144.58 34.9116 141.142 34.9748H139.281L138.965 35.0052H138.775C135.179 35.0684 131.553 35.162 127.897 35.2884C127.171 35.2884 126.445 35.3212 125.72 35.3517C121.717 35.5085 117.679 35.6677 113.643 35.8877C112.917 35.9182 112.192 35.9509 111.499 36.0141C107.81 36.2037 104.12 36.4238 100.431 36.6766C99.7381 36.707 99.0124 36.7702 98.2867 36.803C94.9439 37.0231 91.6011 37.2759 88.2911 37.5615C87.5982 37.5919 86.8725 37.6551 86.1796 37.7183H86.0532C81.9847 37.8751 82.3967 31.8216 82.0807 28.2891C82.0479 27.8163 81.987 27.4066 81.9238 27.0578C81.8934 26.7114 81.8606 26.3322 81.8606 25.9857C81.5446 21.3811 81.1349 16.7766 80.8517 12.172L80.7581 9.90136C80.6644 8.45 80.6316 7.03141 80.6012 5.61282C80.6948 3.15253 83.2511 2.83651 85.393 2.33322C85.7091 2.27001 86.0227 2.20681 86.3083 2.11317C86.718 2.04997 87.1604 1.98676 87.5701 1.92356C91.6386 1.29386 95.7047 0.851424 99.8036 0.568175C100.497 0.504971 101.222 0.474539 101.948 0.411335C105.417 0.221721 108.884 0.0953127 112.386 0.0321083C113.112 0.0321083 113.837 -0.000664328 114.561 0.0321083C118.596 -0.0310961 122.632 0.0321083 126.67 0.128085C127.396 0.128085 128.122 0.158517 128.845 0.158517C132.314 0.284926 135.783 0.378562 139.25 0.504971C139.976 0.535402 140.669 0.568175 141.394 0.598607C144.644 0.694584 147.858 0.78822 151.107 0.884197C151.8 0.914629 152.525 0.914629 153.218 0.947401C157.034 1.01061 160.817 1.07381 164.633 1.01061C165.358 1.04338 166.051 1.01061 166.777 0.977833C169.174 0.977833 171.569 0.914629 173.966 0.78822C174.471 0.851424 175.101 0.851424 175.764 0.820993C176.489 0.78822 177.245 0.757788 177.908 0.820993C179.106 0.914629 180.115 1.26342 180.431 2.4924C180.495 5.2055 180.998 7.85306 181.597 10.4725C181.754 11.2614 181.944 12.0175 182.133 12.8064C182.826 15.6459 183.489 18.4831 183.774 21.4795C183.868 22.8676 184.027 24.3494 184.217 25.8312C184.31 26.6201 184.406 27.409 184.5 28.1651C184.72 29.9629 184.94 31.6975 185.099 33.3057V33.3034Z" fill="var(--fill-0, #DDD431)"/>
<path id="Vector_3" d="M184.213 25.825C182.225 25.7946 180.207 25.7618 178.19 25.6986C178.22 25.4154 178.22 25.1626 178.22 24.9097C178.377 20.8717 178.346 16.8664 178.283 12.8611C179.575 12.8307 180.837 12.8307 182.129 12.7979C181.94 12.009 181.752 11.2529 181.593 10.464C180.458 10.464 179.355 10.4968 178.22 10.5272C178.124 7.7205 178.03 4.91141 177.937 2.10467C177.937 1.69501 177.937 1.25258 177.904 0.81249C177.242 0.749286 176.485 0.779718 175.76 0.81249V0.938899C175.853 4.1553 175.949 7.37404 176.043 10.5904C172.983 10.6536 169.926 10.7473 166.836 10.8105C166.93 7.53088 166.93 4.25128 166.773 0.969331C166.047 1.0021 165.354 1.03254 164.629 1.0021C164.786 4.28171 164.786 7.59409 164.692 10.8433C161.035 10.9392 157.377 10.9697 153.687 10.9065C153.594 7.56365 153.467 4.25128 153.214 0.938899C152.522 0.908467 151.796 0.908467 151.103 0.875695C151.356 4.18807 151.449 7.53088 151.545 10.8737C148.203 10.7777 144.893 10.6209 141.58 10.4313C141.547 7.15166 141.487 3.87205 141.391 0.590105C140.665 0.559673 139.972 0.5269 139.246 0.496468C139.277 2.51433 139.34 4.47132 139.373 6.45641C139.406 7.75093 139.436 9.04311 139.436 10.3353C135.936 10.1457 132.467 9.92563 128.967 9.79922C129 7.05568 129 4.34257 128.874 1.59903C128.874 1.12617 128.874 0.620536 128.841 0.147674C128.115 0.147674 127.392 0.117242 126.666 0.117242C126.823 3.33364 126.823 6.51961 126.793 9.73601H126.699C122.757 9.57917 118.784 9.57917 114.842 9.6096C114.842 7.52854 114.812 5.47791 114.716 3.42728C114.686 2.29194 114.653 1.1566 114.559 0.0212651C113.833 -0.0115075 113.108 0.0212651 112.384 0.0212651C112.637 3.20723 112.605 6.42363 112.637 9.6096C108.915 9.67281 105.228 9.73601 101.506 9.82965C101.506 9.76644 101.506 9.73601 101.539 9.67281C101.855 6.58282 101.949 3.49048 101.949 0.400491C101.223 0.463696 100.497 0.494128 99.8044 0.557332C99.7412 3.6801 99.6148 6.73966 99.3644 9.86242C95.455 9.95606 91.5434 10.0193 87.6037 9.98883C87.6341 7.3085 87.6341 4.59539 87.5709 1.91506C87.1612 1.97826 86.7188 2.04146 86.3091 2.10467C86.0259 2.20065 85.7099 2.26385 85.3938 2.32471C85.3938 4.87864 85.3938 7.4349 85.4266 9.98883C84.2281 9.9584 82.9991 9.9584 81.7678 9.92563C81.4213 9.89519 81.1053 9.89519 80.7589 9.89519L80.8525 12.1659C81.5454 12.1659 82.2407 12.1963 82.9031 12.2291C83.7552 12.2618 84.605 12.2618 85.4571 12.2618C85.5203 16.8032 85.6139 21.3141 85.7731 25.8555C84.4809 25.9187 83.1559 25.9819 81.8638 25.9819C81.8638 26.3283 81.8965 26.7076 81.927 27.054C81.9902 27.4005 82.0534 27.8101 82.0838 28.2853C83.3456 28.2526 84.6073 28.1894 85.8667 28.1261C85.8971 29.4207 85.9603 30.6801 86.0235 31.9746C86.054 33.8988 86.0868 35.7903 86.1804 37.7145C86.8733 37.6513 87.599 37.5881 88.2919 37.5576V37.1784C88.2919 34.1189 88.1655 31.0593 88.0391 27.9997C91.5387 27.7774 95.0079 27.5573 98.5076 27.4637C98.4444 29.9872 98.3812 32.5411 98.3507 35.0646C98.318 35.6334 98.318 36.2304 98.2875 36.7992C99.0132 36.7688 99.7389 36.7056 100.432 36.6728C100.462 36.4832 100.462 36.2631 100.462 36.0735C100.525 33.1731 100.589 30.2704 100.652 27.4005H103.522C106.329 27.4637 109.103 27.5269 111.909 27.5573C111.783 29.2615 111.656 30.9961 111.593 32.6979C111.56 33.8028 111.497 34.9054 111.497 36.0103C112.19 35.9471 112.916 35.9167 113.642 35.8839C113.672 34.3061 113.735 32.7307 113.831 31.1529C113.925 29.9544 114.051 28.7558 114.114 27.5877C118.087 27.6205 122.059 27.6509 126.034 27.7141C125.971 29.0391 125.908 30.3313 125.845 31.6562C125.814 32.8852 125.751 34.1165 125.718 35.3455C126.444 35.3151 127.17 35.2823 127.895 35.2823C127.895 34.8399 127.895 34.4302 127.926 33.9901C127.989 31.909 128.083 29.828 128.209 27.7446C129.248 27.7446 130.29 27.775 131.329 27.8078C133.977 27.871 136.627 27.9014 139.277 27.9014C139.183 30.2985 139.087 32.6324 138.961 34.999L139.277 34.9686H141.138C141.264 32.6347 141.358 30.2376 141.421 27.9342C144.827 27.9342 148.231 27.871 151.637 27.8406C151.669 30.2072 151.543 32.5715 151.384 34.9054H153.591C153.624 34.4957 153.624 34.1165 153.655 33.7069C153.685 31.7522 153.718 29.7952 153.748 27.8101C157.154 27.7774 160.56 27.7469 163.964 27.7165C163.87 30.1768 163.807 32.6043 163.807 35.0342C164.533 35.0342 165.258 35.0646 165.984 35.0974C166.015 32.6371 166.015 30.1768 166.111 27.7493C169.39 27.7493 172.67 27.7797 175.949 27.8757C175.856 30.3664 175.76 32.8899 175.633 35.3502C176.359 35.3502 177.085 35.3806 177.841 35.3502C177.904 32.8899 177.998 30.4296 178.094 27.9693L180.458 28.0653C181.783 28.0957 183.138 28.1285 184.494 28.1589C184.398 27.4028 184.304 26.6139 184.21 25.825H184.213ZM99.1701 12.3906C98.8236 16.6183 98.6644 20.9068 98.5708 25.1649C95.0079 25.2585 91.4755 25.5114 87.9454 25.7314C87.8495 23.3015 87.7254 20.9068 87.6622 18.4769C87.6317 16.4263 87.599 14.3757 87.599 12.2946C91.4779 12.3274 95.324 12.2642 99.1701 12.1682V12.3883V12.3906ZM112.099 25.2585C109.229 25.2258 106.425 25.1953 103.585 25.1017H100.715C100.841 20.7804 101.031 16.4591 101.345 12.1073C105.097 12.0441 108.88 11.9505 112.633 11.8873C112.633 12.1706 112.633 12.4234 112.665 12.6762C112.759 16.8711 112.413 21.066 112.097 25.2609L112.099 25.2585ZM126.161 25.4154C122.219 25.3826 118.246 25.3522 114.304 25.289C114.62 20.8108 114.81 16.3631 114.84 11.885C116.195 11.8522 117.551 11.8522 118.939 11.885C121.526 11.885 124.11 11.9482 126.727 12.0114C126.601 16.4895 126.381 20.97 126.158 25.4154H126.161ZM139.342 25.6378C137.261 25.6378 135.18 25.605 133.099 25.5746C131.491 25.5114 129.915 25.4809 128.307 25.4809C128.56 21.0332 128.78 16.5551 128.907 12.1073C132.439 12.2642 135.939 12.4538 139.469 12.6434C139.499 16.9647 139.438 21.3165 139.342 25.6378ZM141.487 25.6378C141.613 21.3492 141.643 17.0584 141.613 12.737C144.923 12.9267 148.235 13.0835 151.545 13.1467C151.609 17.3088 151.609 21.4429 151.609 25.5746C148.235 25.605 144.86 25.6378 141.487 25.6378ZM164.062 25.4482C160.626 25.4786 157.189 25.5114 153.783 25.5418C153.814 21.4405 153.847 17.3088 153.751 13.1771C154.886 13.2076 156.052 13.2076 157.187 13.2076C159.678 13.1771 162.138 13.1444 164.596 13.1139C164.47 17.2152 164.249 21.3469 164.06 25.4458L164.062 25.4482ZM176.015 25.6378C174.343 25.5746 172.642 25.5114 170.97 25.4482H166.209C166.398 21.3165 166.651 17.2152 166.778 13.0835C169.9 13.0203 172.988 12.9571 176.111 12.8939C176.174 16.0167 176.205 19.1394 176.141 22.2926C176.111 23.3975 176.078 24.5001 176.015 25.6354V25.6378Z" fill="var(--fill-0, #131314)"/>
</g>
</g>
<defs>
<clipPath id="clip0_0_4">
<rect width="259.744" height="367.82" fill="white"/>
</clipPath>
</defs>
</svg>
