<svg width="287" height="405" viewBox="0 0 287 405" fill="none" xmlns="http://www.w3.org/2000/svg">
<g clip-path="url(#clip0_179_1977)">
<g clip-path="url(#clip1_179_1977)">
<path d="M6.10352e-05 15.0948C0.737234 165.527 0.0825421 257.441 1.49761 407.526C91.7781 409.694 184.51 410.075 275.131 411.652C278.448 411.431 284.245 413.258 284.363 408.49C282.871 373.002 283.541 397.579 285.17 362.125C285.098 319.48 284.871 276.866 286 234.19C285.268 169.174 285.905 23.5516 285.827 15.8448C285.778 13.4709 283.673 13.94 281.147 13.8704C187.732 15.1154 91.3142 10.6099 0.00263856 14.7081V15.0948H6.10352e-05ZM41.0575 276.003C40.9003 276.175 40.8075 276.405 40.8152 276.642C40.8333 277.142 41.2508 277.505 41.738 277.505C41.9828 277.505 42.2019 277.392 42.3566 277.222C42.1994 277.394 41.9803 277.505 41.7354 277.505C41.2508 277.505 40.8307 277.142 40.8126 276.642C40.8049 276.407 40.8977 276.175 41.0549 276.003H41.0575Z" fill="#F4F4ED"/>
<path d="M203.807 30.6683C203.738 31.1889 203.426 31.64 202.939 31.9184C200.786 32.7509 198.286 32.8901 195.822 32.9262C194.989 32.9597 194.19 32.9262 193.391 32.9262H191.448C188.533 32.787 185.651 32.6839 182.767 32.6478C181.968 32.6117 181.169 32.5782 180.37 32.5782C176.586 32.5086 172.836 32.439 169.121 32.439H166.691C162.941 32.439 159.193 32.439 155.406 32.5086H153.357L153.009 32.5421H152.801C148.841 32.6117 144.849 32.7148 140.823 32.854C140.024 32.854 139.225 32.8901 138.426 32.9236C134.018 33.0963 129.572 33.2716 125.128 33.5139C124.329 33.5474 123.53 33.5834 122.767 33.653C118.705 33.8618 114.643 34.1041 110.581 34.3825C109.818 34.416 109.019 34.4856 108.22 34.5217C104.539 34.764 100.858 35.0423 97.2135 35.3568C96.4506 35.3903 95.6515 35.4599 94.8886 35.5295H94.7494C90.2697 35.7022 90.7233 29.0367 90.3753 25.1472C90.3393 24.6265 90.2722 24.1755 90.2026 23.7914C90.1691 23.4099 90.133 22.9924 90.133 22.6109C89.7851 17.5409 89.334 12.4709 89.0221 7.40091L88.919 4.90071C88.8159 3.30264 88.7798 1.74066 88.7463 0.178673C88.8494 -2.53031 91.6641 -2.87828 94.0225 -3.43244C94.3705 -3.50204 94.7159 -3.57163 95.0304 -3.67473C95.4814 -3.74433 95.9686 -3.81392 96.4196 -3.88351C100.899 -4.57687 105.377 -5.06402 109.89 -5.3759C110.653 -5.44549 111.452 -5.479 112.251 -5.5486C116.071 -5.75738 119.888 -5.89656 123.744 -5.96616C124.543 -5.96616 125.342 -6.00224 126.139 -5.96616C130.582 -6.03575 135.026 -5.96616 139.472 -5.86048C140.271 -5.86048 141.07 -5.82697 141.867 -5.82697C145.687 -5.68778 149.506 -5.58468 153.324 -5.44549C154.123 -5.41199 154.886 -5.3759 155.685 -5.34239C159.262 -5.23671 162.801 -5.13361 166.379 -5.02793C167.142 -4.99443 167.941 -4.99443 168.704 -4.95834C172.905 -4.88875 177.071 -4.81915 181.272 -4.88875C182.071 -4.85266 182.834 -4.88875 183.633 -4.92483C186.272 -4.92483 188.909 -4.99443 191.549 -5.13361C192.105 -5.06402 192.799 -5.06402 193.528 -5.09753C194.327 -5.13361 195.16 -5.16712 195.889 -5.09753C197.209 -4.99443 198.32 -4.61038 198.668 -3.25717C198.737 -0.269817 199.291 2.64537 199.951 5.52962C200.124 6.39825 200.333 7.23079 200.541 8.09942C201.304 11.226 202.034 14.3499 202.348 17.6492C202.451 19.1776 202.627 20.8092 202.836 22.4408C202.939 23.3094 203.044 24.178 203.147 25.0106C203.39 26.9901 203.632 28.9001 203.807 30.6708V30.6683Z" fill="#F995D6"/>
<path d="M202.836 22.4355C200.648 22.402 198.426 22.3659 196.204 22.2963C196.237 21.9844 196.237 21.706 196.237 21.4276C196.41 16.9814 196.377 12.5713 196.307 8.16111C197.73 8.1276 199.119 8.1276 200.542 8.09151C200.333 7.22289 200.127 6.39034 199.952 5.52172C198.702 5.52172 197.488 5.5578 196.237 5.59131C196.132 2.50085 196.029 -0.592181 195.926 -3.68264C195.926 -4.1337 195.926 -4.62086 195.889 -5.10543C195.16 -5.17503 194.327 -5.14152 193.528 -5.10543V-4.96625C193.632 -1.42472 193.737 2.11938 193.84 5.6609C190.471 5.7305 187.105 5.8336 183.703 5.90319C183.806 2.29207 183.806 -1.31904 183.633 -4.93274C182.834 -4.89665 182.071 -4.86315 181.272 -4.89665C181.445 -1.28554 181.445 2.36167 181.342 5.93928C177.316 6.04496 173.287 6.07846 169.225 6.00887C169.122 2.32816 168.983 -1.31904 168.704 -4.96625C167.941 -4.99975 167.142 -4.99975 166.379 -5.03584C166.658 -1.38864 166.761 2.29207 166.866 5.97279C163.186 5.86711 159.541 5.69441 155.894 5.48563C155.858 1.87451 155.791 -1.7366 155.685 -5.3503C154.886 -5.38381 154.123 -5.41989 153.324 -5.4534C153.358 -3.23157 153.427 -1.07676 153.463 1.10899C153.499 2.53436 153.533 3.95716 153.533 5.37995C149.679 5.17117 145.86 4.92889 142.006 4.7897C142.042 1.76884 142.042 -1.21852 141.903 -4.23938C141.903 -4.76004 141.903 -5.31679 141.867 -5.83745C141.068 -5.83745 140.272 -5.87096 139.472 -5.87096C139.645 -2.32943 139.645 1.17858 139.612 4.72011H139.509C135.168 4.54741 130.794 4.54741 126.453 4.58092C126.453 2.2895 126.42 0.0315816 126.314 -2.22633C126.281 -3.47643 126.245 -4.72654 126.142 -5.97664C125.342 -6.01272 124.543 -5.97664 123.747 -5.97664C124.025 -2.46862 123.989 1.0729 124.025 4.58092C119.927 4.65051 115.867 4.72011 111.769 4.82321C111.769 4.75361 111.769 4.72011 111.805 4.65051C112.153 1.24817 112.256 -2.15674 112.256 -5.55908C111.457 -5.48948 110.658 -5.45598 109.895 -5.38638C109.826 -1.94796 109.687 1.42087 109.411 4.85929C105.106 4.96239 100.799 5.03199 96.4613 4.99848C96.4948 2.04721 96.4948 -0.940147 96.4252 -3.89142C95.9741 -3.82182 95.4869 -3.75223 95.0359 -3.68264C94.724 -3.57696 94.376 -3.50737 94.0281 -3.44035C94.0281 -0.628266 94.0281 2.18639 94.0642 4.99848C92.7445 4.96497 91.3913 4.96497 90.0355 4.92889C89.654 4.89538 89.306 4.89538 88.9246 4.89538L89.0277 7.39558C89.7906 7.39558 90.5561 7.42909 91.2856 7.46517C92.2238 7.50126 93.1594 7.50126 94.0977 7.50126C94.1673 12.5017 94.2704 17.4686 94.4456 22.469C93.0228 22.5386 91.564 22.6082 90.1412 22.6082C90.1412 22.9896 90.1772 23.4072 90.2107 23.7887C90.2803 24.1701 90.3499 24.6212 90.3834 25.1444C91.7727 25.1084 93.162 25.0388 94.5487 24.9692C94.5822 26.3945 94.6518 27.7813 94.7214 29.2066C94.7549 31.3254 94.791 33.408 94.8941 35.5267C95.6571 35.4571 96.4561 35.3875 97.219 35.354V34.9365C97.219 31.5676 97.0799 28.1988 96.9407 24.83C100.794 24.5851 104.614 24.3428 108.467 24.2397C108.398 27.0183 108.328 29.8304 108.295 32.609C108.259 33.2353 108.259 33.8926 108.225 34.5189C109.024 34.4854 109.823 34.4158 110.586 34.3797C110.62 34.171 110.62 33.9287 110.62 33.7199C110.689 30.5263 110.759 27.3302 110.828 24.1701H113.988C117.079 24.2397 120.133 24.3093 123.224 24.3428C123.085 26.2193 122.945 28.1292 122.876 30.0031C122.84 31.2197 122.77 32.4337 122.77 33.6503C123.533 33.5807 124.332 33.5472 125.131 33.5111C125.165 31.7738 125.234 30.0392 125.34 28.3019C125.443 26.9822 125.582 25.6625 125.652 24.3763C130.026 24.4124 134.4 24.4459 138.777 24.5155C138.707 25.9744 138.637 27.3972 138.568 28.8561C138.534 30.2093 138.465 31.5651 138.429 32.9183C139.228 32.8848 140.027 32.8487 140.826 32.8487C140.826 32.3615 140.826 31.9105 140.859 31.4259C140.929 29.1345 141.032 26.843 141.171 24.549C142.315 24.549 143.463 24.5825 144.607 24.6186C147.522 24.6882 150.44 24.7217 153.358 24.7217C153.255 27.3611 153.149 29.9309 153.01 32.5368L153.358 32.5033H155.407C155.546 29.9335 155.649 27.2941 155.719 24.7578C159.469 24.7578 163.217 24.6882 166.967 24.6547C167.003 27.2606 166.864 29.8639 166.689 32.4337H169.119C169.155 31.9826 169.155 31.5651 169.189 31.114C169.222 28.9618 169.258 26.8069 169.292 24.6212C173.042 24.5851 176.793 24.5516 180.54 24.5181C180.437 27.2271 180.368 29.9 180.368 32.5755C181.167 32.5755 181.966 32.609 182.765 32.6451C182.798 29.9361 182.798 27.2271 182.904 24.5542C186.515 24.5542 190.126 24.5877 193.737 24.6934C193.634 27.4359 193.528 30.2144 193.389 32.9234C194.188 32.9234 194.987 32.9569 195.82 32.9234C195.889 30.2144 195.993 27.5055 196.098 24.7965L198.702 24.9022C200.16 24.9357 201.653 24.9717 203.145 25.0053C203.04 24.1727 202.936 23.3041 202.833 22.4355H202.836ZM109.197 7.64302C108.815 12.298 108.64 17.0201 108.537 21.7086C104.614 21.8117 100.724 22.0901 96.8376 22.3324C96.7319 19.6569 96.5953 17.0201 96.5257 14.3446C96.4922 12.0867 96.4561 9.82877 96.4561 7.53734C100.727 7.57343 104.962 7.50384 109.197 7.39816V7.64045V7.64302ZM123.433 21.8117C120.272 21.7756 117.185 21.7421 114.058 21.639H110.898C111.037 16.8809 111.246 12.1228 111.591 7.33114C115.723 7.26155 119.888 7.15845 124.02 7.08885C124.02 7.40074 124.02 7.67911 124.056 7.95748C124.159 12.5764 123.778 17.1953 123.43 21.8143L123.433 21.8117ZM138.916 21.9844C134.575 21.9483 130.201 21.9148 125.861 21.8452C126.209 16.9144 126.417 12.0171 126.451 7.08628C127.943 7.05019 129.436 7.05019 130.964 7.08628C133.812 7.08628 136.658 7.15587 139.539 7.22546C139.4 12.1563 139.158 17.0897 138.913 21.9844H138.916ZM153.43 22.2293C151.138 22.2293 148.847 22.1932 146.556 22.1597C144.785 22.0901 143.05 22.0566 141.279 22.0566C141.558 17.1593 141.8 12.2284 141.939 7.33114C145.829 7.50384 149.682 7.71262 153.569 7.9214C153.602 12.6795 153.535 17.4711 153.43 22.2293ZM155.791 22.2293C155.93 17.5072 155.964 12.7826 155.93 8.0245C159.575 8.23328 163.222 8.40597 166.866 8.47557C166.936 13.0584 166.936 17.6103 166.936 22.1597C163.222 22.1932 159.505 22.2293 155.791 22.2293ZM180.649 22.0205C176.865 22.054 173.081 22.0901 169.331 22.1236C169.364 17.6077 169.4 13.0584 169.294 8.50907C170.545 8.54258 171.828 8.54258 173.078 8.54258C175.821 8.50907 178.53 8.47299 181.236 8.43948C181.097 12.9553 180.855 17.5046 180.646 22.0179L180.649 22.0205ZM193.809 22.2293C191.969 22.1597 190.095 22.0901 188.255 22.0205H183.012C183.221 17.4711 183.499 12.9553 183.638 8.40597C187.077 8.33638 190.477 8.26679 193.915 8.19719C193.985 11.6356 194.018 15.074 193.949 18.546C193.915 19.7626 193.879 20.9766 193.809 22.2267V22.2293Z" fill="#131314"/>
</g>
</g>
<defs>
<clipPath id="clip0_179_1977">
<rect width="286.364" height="405" fill="white"/>
</clipPath>
<clipPath id="clip1_179_1977">
<rect width="286" height="418" fill="white" transform="translate(0 -6)"/>
</clipPath>
</defs>
</svg>
