<svg width="287" height="405" viewBox="0 0 287 405" fill="none" xmlns="http://www.w3.org/2000/svg">
<g clip-path="url(#clip0_179_1995)">
<path d="M283.244 89.6312C283.07 83.2729 282.483 76.6701 282.412 70.4807C282.281 68.4386 282.223 66.2755 280.907 65.204C279.296 63.8678 276.235 64.1073 273.644 64.0846C245.251 65.678 216.687 65.4814 188.228 66.0436C141.794 65.7435 95.2569 64.2636 48.8128 64.8233C37.019 64.7074 25.316 65.2897 13.5852 65.7889C10.1086 66.2528 5.6361 65.7536 2.65362 67.3066C1.23675 68.3907 1.37793 71.2698 1.28969 73.1607C1.31238 79.5542 0.629158 343.021 1.28969 350.418C1.28969 350.418 274.244 350.764 283.63 350.991C288.985 350.181 283.658 123.475 283.247 89.6337L283.244 89.6312ZM36.424 102.156C29.7985 100.853 28.0514 92.8279 32.4608 88.3126C37.3392 82.7258 47.3859 83.8578 48.3842 91.8018C49.2792 98.2206 42.8251 103.467 36.424 102.156ZM70.5902 102.156C63.9647 100.853 62.2176 92.8279 66.627 88.3126C71.5054 82.7258 81.5521 83.8578 82.5504 91.8018C83.4454 98.2206 76.9914 103.467 70.5902 102.156ZM104.759 102.156C98.1335 100.853 96.3863 92.8279 100.796 88.3126C105.674 82.7258 115.721 83.8578 116.719 91.8018C117.614 98.2206 111.16 103.467 104.759 102.156ZM138.925 102.156C132.3 100.853 130.553 92.8279 134.962 88.3126C139.838 82.7258 149.887 83.8578 150.885 91.8018C151.78 98.2206 145.326 103.467 138.925 102.156ZM173.094 102.156C166.468 100.853 164.721 92.8279 169.131 88.3126C174.009 82.7258 184.056 83.8578 185.054 91.8018C185.949 98.2206 179.495 103.467 173.094 102.156ZM207.26 102.156C200.635 100.853 198.887 92.8279 203.297 88.3126C208.175 82.7258 218.222 83.8578 219.22 91.8018C220.115 98.2206 213.661 103.467 207.26 102.156ZM241.429 102.156C234.803 100.853 233.056 92.8279 237.466 88.3126C242.344 82.7258 252.391 83.8578 253.389 91.8018C254.284 98.2206 247.83 103.467 241.429 102.156Z" fill="#FF8247"/>
<path d="M228.793 55.9338C227.162 54.4338 224.77 53.98 222.614 54.0002C217.625 54.0279 214.935 58.5382 215.225 63.1493C215.136 64.9595 215.787 67.1629 218.033 66.2049C219.084 65.6931 218.961 64.4804 218.812 63.5174C218.772 62.5165 218.852 61.5106 219.024 60.5223C219.692 57.27 223.915 56.8591 226.292 58.4877C226.812 59.0147 226.925 59.7811 227.081 60.4744C227.407 62.4434 227.666 64.425 227.82 66.4167C227.719 69.3084 228.982 83.7141 225.73 83.9586C223.875 82.7107 224.47 79.9551 224.414 78.0239C224.414 74.5221 224.52 71.0303 224.636 67.5335C224.805 64.6796 221.699 63.7947 221.106 66.873C220.98 68.847 220.99 70.8286 220.897 72.8052C221.22 77.6155 219.011 85.3931 224.936 87.4478C231.022 88.1512 231.574 80.3055 231.461 75.9188C231.425 71.1135 232.046 59.2995 228.793 55.9389V55.9338ZM216.324 63.0737C216.442 63.0081 216.578 62.9627 216.699 62.9224C216.778 62.9123 216.858 62.8821 216.936 62.8846C216.727 62.9123 216.523 62.9804 216.324 63.0737Z" fill="#EAD110"/>
</g>
<defs>
<clipPath id="clip0_179_1995">
<rect width="285" height="297" fill="white" transform="translate(1 54)"/>
</clipPath>
</defs>
</svg>
